<?xml version="1.0" encoding="UTF-8" standalone="no"?>
<svg
   viewBox="0 0 275.5096 43"
   width="5000"
   height="780.3720814084155"
   preserveAspectRatio="none"
   version="1.1"
   id="svg849"
   sodipodi:docname="nettside bilder/Original.svg"
   inkscape:version="1.1 (c68e22c387, 2021-05-23)"
   xmlns:inkscape="http://www.inkscape.org/namespaces/inkscape"
   xmlns:sodipodi="http://sodipodi.sourceforge.net/DTD/sodipodi-0.dtd"
   xmlns="http://www.w3.org/2000/svg"
   xmlns:svg="http://www.w3.org/2000/svg">
  <sodipodi:namedview
     id="namedview851"
     pagecolor="#505050"
     bordercolor="#eeeeee"
     borderopacity="1"
     inkscape:pageshadow="0"
     inkscape:pageopacity="0"
     inkscape:pagecheckerboard="0"
     showgrid="false"
     inkscape:zoom="0.2318"
     inkscape:cx="2094.478"
     inkscape:cy="390.42278"
     inkscape:window-width="1920"
     inkscape:window-height="1017"
     inkscape:window-x="-8"
     inkscape:window-y="-8"
     inkscape:window-maximized="1"
     inkscape:current-layer="svg849" />
  <defs
     id="defs837" />
  <style
     id="style839">.aD6z1nYkhcolor {fill:#F6F5EC;fill-opacity:1;}</style>
  <g
     opacity="1"
     id="g847">
    <svg
       width="275.50961"
       height="43"
       x="0"
       y="0"
       version="1.1"
       preserveAspectRatio="none"
       viewBox="1.12 -31.28 203.96 31.84"
       id="svg845">
      <g
         class="aD6z1nYkhcolor"
         id="g843">
        <path
           d="m 29.32,-2.12 0.52,0.52 q -1.2,1.2 -2.64,1.68 -1.44,0.48 -3.36,0.48 v 0 q -2.76,0 -4.28,-0.98 -1.52,-0.98 -1.88,-3.34 v 0 l -0.6,-4 q -0.4,-2.8 -1.1,-4.24 -0.7,-1.44 -2.1,-1.44 v 0 h -1.8 v 9.2 q 0,1.52 0.22,2.2 0.22,0.68 0.78,0.92 0.56,0.24 1.84,0.32 v 0 V 0 Q 12.6,-0.12 8.24,-0.12 v 0 Q 3.4,-0.12 1.12,0 v 0 -0.8 q 1.28,-0.08 1.86,-0.32 0.58,-0.24 0.78,-0.92 0.2,-0.68 0.2,-2.2 v 0 -19.84 q 0,-1.52 -0.22,-2.2 -0.22,-0.68 -0.78,-0.92 -0.56,-0.24 -1.84,-0.32 v 0 -0.8 Q 3.4,-28.2 8,-28.2 v 0 l 4.6,-0.04 q 0.8,-0.04 1.84,-0.04 v 0 q 6.08,0 9.06,1.72 2.98,1.72 2.98,5.24 v 0 q 0,3 -2.24,5.12 -2.24,2.12 -7.52,2.6 v 0 q 4.08,0.28 6.16,1.54 2.08,1.26 2.56,3.7 v 0 l 0.84,4.16 q 0.28,1.48 0.68,2.04 0.4,0.56 1.12,0.56 v 0 q 0.72,0 1.24,-0.52 z m -15.08,-25.4 q -0.92,0 -1.38,0.28 -0.46,0.28 -0.62,1 -0.16,0.72 -0.16,2.16 v 0 9.84 h 1.08 q 2.84,0 3.88,-1.74 1.04,-1.74 1.04,-4.9 v 0 q 0,-3.28 -0.9,-4.96 -0.9,-1.68 -2.94,-1.68 z M 39,-31.28 v 12.96 q 1.8,-3 6.36,-3 v 0 q 3.2,0 4.52,1.6 v 0 q 0.6,0.72 0.88,1.94 0.28,1.22 0.28,3.22 v 0 10.84 q 0,1.64 0.5,2.26 0.5,0.62 1.74,0.62 v 0 V 0 q -4.32,-0.16 -5.6,-0.16 v 0 Q 46.32,-0.16 42,0 v 0 -0.84 q 1.04,0 1.44,-0.62 0.4,-0.62 0.4,-2.26 v 0 -13 q 0,-1.28 -0.46,-1.9 -0.46,-0.62 -1.5,-0.62 v 0 q -1.16,0 -2.02,0.82 Q 39,-17.6 39,-16.36 v 0 12.64 q 0,1.64 0.4,2.26 0.4,0.62 1.44,0.62 v 0 V 0 q -4,-0.16 -5.28,-0.16 v 0 q -1.36,0 -6,0.16 v 0 -0.84 q 1.24,0 1.74,-0.62 0.5,-0.62 0.5,-2.26 v 0 -22.76 q 0,-1.84 -0.5,-2.68 Q 30.8,-30 29.56,-30 v 0 -0.84 q 1.24,0.12 2.48,0.12 v 0 q 4.16,0 6.96,-0.56 z m 26.24,9.96 q 4.92,0 7.6,2.58 2.68,2.58 2.68,8.38 v 0 q 0,5.8 -2.68,8.36 -2.68,2.56 -7.6,2.56 v 0 q -4.92,0 -7.6,-2.56 -2.68,-2.56 -2.68,-8.36 v 0 q 0,-5.8 2.68,-8.38 2.68,-2.58 7.6,-2.58 z m 0,0.8 q -1.28,0 -2.04,2.52 -0.76,2.52 -0.76,7.64 v 0 q 0,5.12 0.76,7.62 0.76,2.5 2.04,2.5 v 0 q 1.28,0 2.04,-2.5 0.76,-2.5 0.76,-7.62 v 0 q 0,-5.12 -0.76,-7.64 -0.76,-2.52 -2.04,-2.52 z M 86,-21.32 q 1.56,0 2.94,0.34 1.38,0.34 2.1,0.74 v 0 q 0.44,0.24 0.72,0.24 v 0 q 0.84,0 1,-1.28 v 0 h 0.8 q -0.16,2.08 -0.16,7.2 v 0 h -0.8 q -0.32,-2.64 -1.5,-4.46 -1.18,-1.82 -3.42,-1.82 v 0 q -1,0 -1.68,0.6 -0.68,0.6 -0.68,1.64 v 0 q 0,1.32 0.88,2.34 0.88,1.02 2.76,2.5 v 0 q 0.08,0.04 1.16,0.92 v 0 q 2.24,1.84 3.28,3.26 1.04,1.42 1.04,3.5 v 0 q 0,1.76 -1.08,3.18 -1.08,1.42 -2.94,2.2 -1.86,0.78 -4.06,0.78 v 0 q -2.52,0 -4.12,-1 v 0 Q 81.56,-0.8 81.12,-0.96 80.68,-1.12 80.24,-1.12 v 0 q -0.76,0 -1.12,1.4 v 0 h -0.8 q 0.16,-2.28 0.16,-8 v 0 h 0.8 q 0.36,3.28 1.76,5.28 1.4,2 3.52,2 v 0 q 1,0 1.66,-0.56 0.66,-0.56 0.66,-1.64 v 0 q 0,-1.12 -0.46,-2 -0.46,-0.88 -1.12,-1.58 -0.66,-0.7 -2.14,-2.02 v 0 q -1.68,-1.56 -2.56,-2.48 -0.88,-0.92 -1.5,-2.14 -0.62,-1.22 -0.62,-2.7 v 0 q 0,-1.72 1.04,-3.04 1.04,-1.32 2.76,-2.02 1.72,-0.7 3.72,-0.7 z m 22.96,17.52 q 2.92,0 4.84,-2.68 v 0 l 0.68,0.24 q -0.88,2.8 -2.98,4.8 -2.1,2 -5.38,2 v 0 q -4.2,0 -6.72,-2.6 -2.52,-2.6 -2.52,-8.32 v 0 q 0,-5.48 2.82,-8.22 2.82,-2.74 7.46,-2.74 v 0 q 7.56,0 7.56,8.96 v 0 H 104.4 q -0.04,0.48 -0.04,1.44 v 0 q 0,3.84 1.34,5.48 1.34,1.64 3.26,1.64 z m -2.08,-16.6 q -2.24,0 -2.64,7.28 v 0 h 4.64 q 0.04,-3.2 -0.46,-5.24 -0.5,-2.04 -1.54,-2.04 z m 25.84,-8.48 q 2.56,0 4.4,0.68 1.84,0.68 3.36,1.92 v 0 q 0.44,0.36 0.8,0.36 v 0 q 0.4,0 0.64,-0.58 0.24,-0.58 0.36,-1.82 v 0 h 0.92 q -0.16,2.84 -0.16,10 v 0 h -0.92 q -0.28,-3.16 -1.04,-5 -0.76,-1.84 -2.64,-3.12 v 0 q -0.84,-0.56 -1.94,-0.88 -1.1,-0.32 -2.18,-0.32 v 0 q -2.88,0 -4.66,2.02 -1.78,2.02 -2.52,5.1 -0.74,3.08 -0.74,6.44 v 0 q 0,6.96 1.7,10.4 1.7,3.44 4.74,3.44 v 0 q 1.24,0 1.96,-0.48 v 0 q 0.84,-0.6 0.84,-2 v 0 -4 q 0,-2 -0.32,-2.94 -0.32,-0.94 -1.14,-1.28 -0.82,-0.34 -2.58,-0.42 v 0 -0.8 q 2.72,0.12 7.64,0.12 v 0 q 4.12,0 6.16,-0.12 v 0 0.8 q -0.72,0.08 -1.06,0.32 -0.34,0.24 -0.46,0.92 -0.12,0.68 -0.12,2.2 v 0 V 0 h -0.8 q -0.04,-0.84 -0.36,-1.56 -0.32,-0.72 -0.88,-0.72 v 0 q -0.84,0 -2.72,0.92 v 0 q -4,1.92 -6.76,1.92 v 0 q -7.44,0 -11.24,-3.76 -3.8,-3.76 -3.8,-10.72 v 0 q 0,-4.4 1.98,-7.8 1.98,-3.4 5.5,-5.28 3.52,-1.88 8.04,-1.88 z m 24.8,7.56 q 4.92,0 7.6,2.58 2.68,2.58 2.68,8.38 v 0 q 0,5.8 -2.68,8.36 -2.68,2.56 -7.6,2.56 v 0 q -4.92,0 -7.6,-2.56 -2.68,-2.56 -2.68,-8.36 v 0 q 0,-5.8 2.68,-8.38 2.68,-2.58 7.6,-2.58 z m 0,0.8 q -1.28,0 -2.04,2.52 -0.76,2.52 -0.76,7.64 v 0 q 0,5.12 0.76,7.62 0.76,2.5 2.04,2.5 v 0 q 1.28,0 2.04,-2.5 0.76,-2.5 0.76,-7.62 v 0 q 0,-5.12 -0.76,-7.64 -0.76,-2.52 -2.04,-2.52 z m 21.28,-10.76 v 27.56 q 0,1.64 0.5,2.26 0.5,0.62 1.74,0.62 v 0 V 0 q -4.32,-0.16 -5.68,-0.16 v 0 q -1.36,0 -6,0.16 v 0 -0.84 q 1.24,0 1.74,-0.62 0.5,-0.62 0.5,-2.26 v 0 -22.76 q 0,-1.84 -0.5,-2.68 -0.5,-0.84 -1.74,-0.84 v 0 -0.84 q 1.24,0.12 2.48,0.12 v 0 q 4.16,0 6.96,-0.56 z m 24.04,26.88 q 0,1.84 0.5,2.68 0.5,0.84 1.74,0.84 v 0 0.84 q -1.24,-0.12 -2.48,-0.12 v 0 q -4.16,0 -6.96,0.56 v 0 -2.84 q -0.84,1.56 -1.98,2.28 -1.14,0.72 -2.9,0.72 v 0 q -3.68,0 -5.92,-2.74 -2.24,-2.74 -2.24,-8.34 v 0 q 0,-5.32 2.38,-8.06 2.38,-2.74 6.5,-2.74 v 0 q 2.56,0 4.16,1 v 0 -6.16 q 0,-1.84 -0.5,-2.68 -0.5,-0.84 -1.74,-0.84 v 0 -0.84 q 1.24,0.12 2.48,0.12 v 0 q 4.16,0 6.96,-0.56 v 0 z m -10.08,2.88 q 1.16,0 2.02,-0.82 0.86,-0.82 0.86,-2.06 v 0 -15.08 Q 194.76,-20 193.76,-20 v 0 q -1.88,0 -2.78,2.38 -0.9,2.38 -0.9,7.22 v 0 q 0,4.92 0.72,6.9 0.72,1.98 1.96,1.98 z"
           id="path841" />
      </g>
    </svg>
  </g>
</svg>
